<?xml version="1.0" encoding="UTF-8"?>
<svg width="7.6441in" height="7.6441in" version="1.1" viewBox="0 0 194.16 194.16" xmlns="http://www.w3.org/2000/svg">
 <g transform="translate(-10.87 -42.62)">
  <rect x="10.87" y="42.62" width="194.16" height="194.16" rx="30.189" ry="30.189" fill="#20c997"/>
 </g>
 <g transform="matrix(.66796 0 0 .66796 22.884 -20.576)" fill="#fff" stroke-linecap="round" stroke-linejoin="round" stroke-width=".79197">
  <path d="m79.795 65.249 11.013 11.013a7.3773 7.3773 90 0 1-1e-6 10.433l-11.013 11.013-16.23-16.23z"/>
  <path d="m79.795 97.709 11.013 11.013a7.3773 7.3773 90 0 1-1e-6 10.433l-11.013 11.013-16.23-16.23z"/>
  <path d="m79.795 130.17 11.013 11.013a7.3773 7.3773 90 0 1 0 10.433l-11.013 11.013-16.23-16.23z"/>
 </g>
 <g transform="matrix(.66796 0 0 .66796 22.884 -44.088)" stroke-width="1.4971">
  <path transform="translate(1.8714e-8)" d="m107.85 243q-24.687 0-38.225-14.036-13.538-14.135-13.538-39.817v-92.376h23.791v93.073q0 14.135 7.2667 21.9 7.3662 7.7644 20.705 7.7644 13.438 0 20.805-7.7644 7.3662-7.7644 7.3662-21.9v-93.073h23.791v92.376q0 25.682-13.637 39.817-13.538 14.036-38.324 14.036z" fill="#198754" stroke-linecap="round" stroke-linejoin="round" stroke-width=".79197"/>
 </g>
 <g transform="translate(-10.87 -42.62)" fill="#fff" stroke-linecap="round" stroke-linejoin="round" stroke-width=".529">
  <path d="m62.053 184.62q0 0.29209-0.53107 0.29209-1.9915 0-6.0541-0.3452-4.0361-0.34519-6.0541-0.34519-2.5491 0-2.974 0.18587-0.98247 0.45141-0.98247 2.5491 0 2.5226 1.2746 2.8678 0.53107 0.13277 1.6198 0.13277 1.8322 0 5.47-0.18588 3.6644-0.21242 5.4965-0.21242 0.87626 0 0.87626 4.6734 0 4.0626-0.29209 4.7265-0.18587 0.47795-0.71694 0.47795 0.34519 0-1.6729-0.18587-2.8412-0.26553-8.6033-0.26553-1.8587 0-2.0977 0.0266-1.3542 0.21243-1.3542 1.1418 0 3.7706 0.31864 8.6829 0.26553 4.4344 0.26553 3.9564 0 0.69039-1.6729 0.7966 0.45141-0.0266-2.3632-0.0266-4.9655 0-6.3993-0.3452-0.77004-0.18587-0.77004-0.82315 0-2.9474 0.18587-8.8422 0.21243-5.9214 0.21243-8.8688 0-3.505-0.31864-8.8157-0.47796-8.205-0.50451-8.8157l-0.02655-0.31864q-0.02655-0.66383 0.7966-0.66383 1.9649 0 5.9214 0.0797 3.983 0.0797 5.9745 0.0797 2.1243 0 6.3728-0.31864 4.2751-0.31864 6.3993-0.31864 1.3277 0 1.487 1.0887 0 1.1418 0.10621 3.4254 0.05311 0.58418 0.34519 2.257 0.26553 1.4604 0.26553 2.257z"/>
  <path d="m102.07 194.63q0 8.2846-5.2841 13.887-5.3903 5.6824-13.648 5.6824-8.205 0-13.622-5.7355-5.3107-5.6027-5.3107-13.834 0-8.2581 5.3107-13.887 5.4169-5.7621 13.622-5.7621 8.1519 0 13.595 5.7621 5.3372 5.6824 5.3372 13.887zm-10.064-0.0531q0-3.983-2.4163-6.7711-2.5226-2.9209-6.4524-2.9209-3.744 0-6.3462 3.0271-2.5226 2.9208-2.5226 6.718 0 4.0626 2.3632 6.7711 2.496 2.8412 6.5056 2.8412 3.744 0 6.3728-3.0005 2.496-2.8678 2.496-6.6649z"/>
  <path d="m142.91 194.63q0 8.2846-5.2841 13.887-5.3903 5.6824-13.648 5.6824-8.205 0-13.622-5.7355-5.3106-5.6027-5.3106-13.834 0-8.2581 5.3106-13.887 5.4169-5.7621 13.622-5.7621 8.1518 0 13.595 5.7621 5.3372 5.6824 5.3372 13.887zm-10.064-0.0531q0-3.983-2.4164-6.7711-2.5226-2.9209-6.4524-2.9209-3.744 0-6.3462 3.0271-2.5226 2.9208-2.5226 6.718 0 4.0626 2.3632 6.7711 2.496 2.8412 6.5056 2.8412 3.744 0 6.3728-3.0005 2.496-2.8678 2.496-6.6649z"/>
  <path d="m181.52 194.39q0 7.8067-5.0186 13.542-4.4344 5.1248-12.453 5.3903-1.5401 0.0531-8.4705 0.0531-1.3011 0-3.9299-0.0797-2.6022-0.0797-3.9033-0.0797-0.77004 0-0.77004-0.61072 0-2.9209 0.21242-8.7626 0.23898-5.8683 0.23898-8.7891 0-3.0536-0.23898-9.1343-0.21242-6.1072-0.21242-9.1343 0-0.55761 0.77004-0.66383 1.8853-0.21242 6.1869-0.21242 8.1784 0 10.595 0.23898 6.2931 0.63727 9.8513 3.1864 3.3457 2.3898 5.2841 6.6914 1.8587 4.0626 1.8587 8.3643zm-10.17 0q0-4.4875-2.6819-7.3287-2.7084-2.9474-7.1694-2.9474-4.0892 0-4.0892 1.0887 0 1.5666-0.0531 4.7265-0.0531 3.1333-0.0531 4.6999 0 1.5401 0.0531 4.6468 0.0531 3.0802 0.0531 4.6468 0 1.1418 4.2485 1.1418 4.5937 0 7.2225-3.0536 2.4694-2.8943 2.4694-7.6208z"/>
 </g>
 <g transform="matrix(.66796 0 0 .66796 22.884 -20.576)" stroke-width="1.4971">
  <circle cx="55.941" cy="150.15" r="12.436" fill="#fff"/>
  <circle cx="55.941" cy="146.58" r="4.0652" fill="#198754"/>
  <circle cx="55.941" cy="168.58" r="12.436" fill="#fff"/>
  <circle cx="55.941" cy="165.01" r="4.0652" fill="#198754"/>
 </g>
</svg>
