<?xml version="1.0" encoding="UTF-8"?>
<svg width="7.6441in" height="7.6441in" version="1.1" viewBox="0 0 194.16 194.16" xmlns="http://www.w3.org/2000/svg">
 <g transform="translate(-10.87 -42.62)">
  <rect x="10.87" y="42.62" width="194.16" height="194.16" rx="30.189" ry="30.189" fill="#20c997"/>
  <g fill="#fff" stroke-linecap="round" stroke-linejoin="round" stroke-width=".529">
   <path d="m79.795 70.262 11.013 11.013a7.3773 7.3773 90 0 1-1e-6 10.433l-11.013 11.013-16.23-16.23z"/>
   <path d="m79.795 102.72 11.013 11.013a7.3773 7.3773 90 0 1 0 10.433l-11.013 11.013-16.23-16.23z"/>
   <path d="m79.795 135.18 11.013 11.013a7.3773 7.3773 90 0 1 0 10.433l-11.013 11.013-16.23-16.23z"/>
  </g>
 </g>
 <g transform="translate(-10.87 -77.82)">
  <path d="m107.85 248.01q-24.687 0-38.225-14.036-13.538-14.135-13.538-39.817v-92.376h23.791v93.073q0 14.135 7.2667 21.9 7.3662 7.7644 20.705 7.7644 13.438 0 20.805-7.7644 7.3662-7.7644 7.3662-21.9v-93.073h23.791v92.376q0 25.682-13.637 39.817-13.538 14.036-38.324 14.036z" fill="#198754" stroke-linecap="round" stroke-linejoin="round" stroke-width=".529"/>
 </g>
 <g transform="translate(-10.87 -42.62)">
  <circle cx="55.941" cy="155.17" r="12.436" fill="#fff"/>
  <circle cx="55.941" cy="151.59" r="4.0652" fill="#198754"/>
  <circle cx="55.941" cy="173.59" r="12.436" fill="#fff"/>
  <circle cx="55.941" cy="170.02" r="4.0652" fill="#198754"/>
 </g>
</svg>
